<svg xmlns="http://www.w3.org/2000/svg" version="1.1" xmlns:xlink="http://www.w3.org/1999/xlink" xmlns:svgjs="http://svgjs.dev/svgjs" width="1450" height="900" preserveAspectRatio="none" viewBox="0 0 1450 900"><g mask="url(&quot;#SvgjsMask1285&quot;)" fill="none"><rect width="1450" height="900" x="0" y="0" fill="url(&quot;#SvgjsLinearGradient1286&quot;)"></rect><path d="M0 0L562.21 0L0 280.69z" fill="rgba(255, 255, 255, .1)"></path><path d="M0 280.69L562.21 0L566.5 0L0 557.97z" fill="rgba(255, 255, 255, .075)"></path><path d="M0 557.97L566.5 0L963.0799999999999 0L0 631.63z" fill="rgba(255, 255, 255, .05)"></path><path d="M0 631.63L963.0799999999999 0L1138.29 0L0 785.09z" fill="rgba(255, 255, 255, .025)"></path><path d="M1450 900L1369.69 900L1450 876.12z" fill="rgba(0, 0, 0, .1)"></path><path d="M1450 876.12L1369.69 900L1052.0900000000001 900L1450 389.98z" fill="rgba(0, 0, 0, .075)"></path><path d="M1450 389.98L1052.09 900L786.5 900L1450 333.82000000000005z" fill="rgba(0, 0, 0, .05)"></path><path d="M1450 333.82000000000005L786.5 900L570.79 900L1450 191.82000000000005z" fill="rgba(0, 0, 0, .025)"></path></g><defs><mask id="SvgjsMask1285"><rect width="1450" height="900" fill="#ffffff"></rect></mask><linearGradient x1="9.48%" y1="-15.28%" x2="90.52%" y2="115.28%" gradientUnits="userSpaceOnUse" id="SvgjsLinearGradient1286"><stop stop-color="#0e2a47" offset="0"></stop><stop stop-color="rgba(24, 24, 27, 1)" offset="1"></stop></linearGradient></defs></svg>