<svg xmlns="http://www.w3.org/2000/svg" version="1.1" xmlns:xlink="http://www.w3.org/1999/xlink" xmlns:svgjs="http://svgjs.dev/svgjs" width="1450" height="900" preserveAspectRatio="none" viewBox="0 0 1450 900"><g mask="url(&quot;#SvgjsMask1295&quot;)" fill="none"><rect width="1450" height="900" x="0" y="0" fill="url(&quot;#SvgjsLinearGradient1296&quot;)"></rect><path d="M0 0L302.73 0L0 421.74z" fill="rgba(255, 255, 255, .1)"></path><path d="M0 421.74L302.73 0L380.69 0L0 553.58z" fill="rgba(255, 255, 255, .075)"></path><path d="M0 553.58L380.69 0L630.8199999999999 0L0 620.1700000000001z" fill="rgba(255, 255, 255, .05)"></path><path d="M0 620.1700000000001L630.8199999999999 0L1155.76 0L0 743.8000000000001z" fill="rgba(255, 255, 255, .025)"></path><path d="M1450 900L1301.21 900L1450 677.58z" fill="rgba(0, 0, 0, .1)"></path><path d="M1450 677.58L1301.21 900L619.2 900L1450 648.7900000000001z" fill="rgba(0, 0, 0, .075)"></path><path d="M1450 648.79L619.2 900L277.55000000000007 900L1450 607.04z" fill="rgba(0, 0, 0, .05)"></path><path d="M1450 607.04L277.5500000000002 900L123.57000000000019 900L1450 282.31999999999994z" fill="rgba(0, 0, 0, .025)"></path></g><defs><mask id="SvgjsMask1295"><rect width="1450" height="900" fill="#ffffff"></rect></mask><linearGradient x1="9.48%" y1="-15.28%" x2="90.52%" y2="115.28%" gradientUnits="userSpaceOnUse" id="SvgjsLinearGradient1296"><stop stop-color="#0e2a47" offset="0"></stop><stop stop-color="rgba(24, 24, 27, 1)" offset="1"></stop></linearGradient></defs></svg>