<svg xmlns="http://www.w3.org/2000/svg" version="1.1" xmlns:xlink="http://www.w3.org/1999/xlink" xmlns:svgjs="http://svgjs.dev/svgjs" width="1450" height="900" preserveAspectRatio="none" viewBox="0 0 1450 900"><g mask="url(&quot;#SvgjsMask1301&quot;)" fill="none"><rect width="1450" height="900" x="0" y="0" fill="url(&quot;#SvgjsLinearGradient1302&quot;)"></rect><path d="M0 0L348.51 0L0 168.74z" fill="rgba(255, 255, 255, .1)"></path><path d="M0 168.74L348.51 0L600.26 0L0 502.16z" fill="rgba(255, 255, 255, .075)"></path><path d="M0 502.16L600.26 0L932.95 0L0 584.1600000000001z" fill="rgba(255, 255, 255, .05)"></path><path d="M0 584.1600000000001L932.95 0L1086.3700000000001 0L0 698.8100000000001z" fill="rgba(255, 255, 255, .025)"></path><path d="M1450 900L777.54 900L1450 744.29z" fill="rgba(0, 0, 0, .1)"></path><path d="M1450 744.29L777.54 900L536.43 900L1450 625.98z" fill="rgba(0, 0, 0, .075)"></path><path d="M1450 625.98L536.43 900L420.63999999999993 900L1450 270.62z" fill="rgba(0, 0, 0, .05)"></path><path d="M1450 270.62L420.6399999999999 900L393.34999999999985 900L1450 206.82z" fill="rgba(0, 0, 0, .025)"></path></g><defs><mask id="SvgjsMask1301"><rect width="1450" height="900" fill="#ffffff"></rect></mask><linearGradient x1="9.48%" y1="-15.28%" x2="90.52%" y2="115.28%" gradientUnits="userSpaceOnUse" id="SvgjsLinearGradient1302"><stop stop-color="#0e2a47" offset="0"></stop><stop stop-color="rgba(24, 24, 27, 1)" offset="1"></stop></linearGradient></defs></svg>